<mxfile host="app.diagrams.net" modified="2022-12-30T04:02:31.659Z" agent="5.0 (Windows NT 10.0; Win64; x64) AppleWebKit/537.36 (KHTML, like Gecko) Chrome/108.0.0.0 Safari/537.36" etag="JUAczWVVXcQomWCMrlLQ" version="20.7.4" type="github" pages="3">
  <diagram id="S9q8TqHFapcNbvxy4j6h" name="BMP">
    <mxGraphModel dx="1886" dy="846" grid="1" gridSize="10" guides="1" tooltips="1" connect="1" arrows="1" fold="1" page="1" pageScale="1" pageWidth="850" pageHeight="1100" math="0" shadow="0">
      <root>
        <mxCell id="0" />
        <mxCell id="1" parent="0" />
        <mxCell id="AXQ52drEaIlNH6SVdhNf-6" style="edgeStyle=orthogonalEdgeStyle;rounded=0;orthogonalLoop=1;jettySize=auto;html=1;exitX=0.5;exitY=0.5;exitDx=0;exitDy=0;exitPerimeter=0;entryX=0;entryY=0.5;entryDx=0;entryDy=0;" parent="1" source="Kh5swrbaKUCoFKUL2wPJ-1" target="Kh5swrbaKUCoFKUL2wPJ-2" edge="1">
          <mxGeometry relative="1" as="geometry" />
        </mxCell>
        <mxCell id="Kh5swrbaKUCoFKUL2wPJ-1" value="Actor" style="shape=umlActor;verticalLabelPosition=bottom;verticalAlign=top;html=1;outlineConnect=0;" parent="1" vertex="1">
          <mxGeometry x="10" y="350" width="30" height="60" as="geometry" />
        </mxCell>
        <mxCell id="AXQ52drEaIlNH6SVdhNf-7" style="edgeStyle=orthogonalEdgeStyle;rounded=0;orthogonalLoop=1;jettySize=auto;html=1;exitX=1;exitY=0.5;exitDx=0;exitDy=0;entryX=0;entryY=0.5;entryDx=0;entryDy=0;" parent="1" source="Kh5swrbaKUCoFKUL2wPJ-2" target="Kh5swrbaKUCoFKUL2wPJ-3" edge="1">
          <mxGeometry relative="1" as="geometry" />
        </mxCell>
        <mxCell id="Kh5swrbaKUCoFKUL2wPJ-2" value="React (UI)" style="rounded=1;whiteSpace=wrap;html=1;" parent="1" vertex="1">
          <mxGeometry x="100" y="350" width="120" height="60" as="geometry" />
        </mxCell>
        <mxCell id="AXQ52drEaIlNH6SVdhNf-8" style="edgeStyle=orthogonalEdgeStyle;rounded=0;orthogonalLoop=1;jettySize=auto;html=1;exitX=1;exitY=0.5;exitDx=0;exitDy=0;entryX=0;entryY=0.5;entryDx=0;entryDy=0;" parent="1" source="Kh5swrbaKUCoFKUL2wPJ-3" target="Kh5swrbaKUCoFKUL2wPJ-4" edge="1">
          <mxGeometry relative="1" as="geometry" />
        </mxCell>
        <mxCell id="AXQ52drEaIlNH6SVdhNf-9" style="edgeStyle=orthogonalEdgeStyle;rounded=0;orthogonalLoop=1;jettySize=auto;html=1;exitX=1;exitY=0.5;exitDx=0;exitDy=0;entryX=0;entryY=0.5;entryDx=0;entryDy=0;" parent="1" source="Kh5swrbaKUCoFKUL2wPJ-3" target="Kh5swrbaKUCoFKUL2wPJ-5" edge="1">
          <mxGeometry relative="1" as="geometry" />
        </mxCell>
        <mxCell id="AXQ52drEaIlNH6SVdhNf-10" style="edgeStyle=orthogonalEdgeStyle;rounded=0;orthogonalLoop=1;jettySize=auto;html=1;exitX=1;exitY=0.5;exitDx=0;exitDy=0;entryX=0;entryY=0.5;entryDx=0;entryDy=0;" parent="1" source="Kh5swrbaKUCoFKUL2wPJ-3" target="Kh5swrbaKUCoFKUL2wPJ-6" edge="1">
          <mxGeometry relative="1" as="geometry" />
        </mxCell>
        <mxCell id="AXQ52drEaIlNH6SVdhNf-11" style="edgeStyle=orthogonalEdgeStyle;rounded=0;orthogonalLoop=1;jettySize=auto;html=1;exitX=1;exitY=0.5;exitDx=0;exitDy=0;entryX=0;entryY=0.75;entryDx=0;entryDy=0;" parent="1" source="Kh5swrbaKUCoFKUL2wPJ-3" target="Kh5swrbaKUCoFKUL2wPJ-7" edge="1">
          <mxGeometry relative="1" as="geometry" />
        </mxCell>
        <mxCell id="Kh5swrbaKUCoFKUL2wPJ-3" value="API GWY" style="rounded=1;whiteSpace=wrap;html=1;" parent="1" vertex="1">
          <mxGeometry x="300" y="350" width="120" height="60" as="geometry" />
        </mxCell>
        <mxCell id="Kh5swrbaKUCoFKUL2wPJ-4" value="Authentication" style="rounded=1;whiteSpace=wrap;html=1;" parent="1" vertex="1">
          <mxGeometry x="520" y="180" width="120" height="60" as="geometry" />
        </mxCell>
        <mxCell id="Kh5swrbaKUCoFKUL2wPJ-5" value="MDS" style="rounded=1;whiteSpace=wrap;html=1;" parent="1" vertex="1">
          <mxGeometry x="520" y="260" width="120" height="60" as="geometry" />
        </mxCell>
        <mxCell id="AXQ52drEaIlNH6SVdhNf-12" style="edgeStyle=orthogonalEdgeStyle;rounded=0;orthogonalLoop=1;jettySize=auto;html=1;exitX=1;exitY=0.5;exitDx=0;exitDy=0;entryX=0;entryY=0.5;entryDx=0;entryDy=0;" parent="1" source="Kh5swrbaKUCoFKUL2wPJ-6" target="Kh5swrbaKUCoFKUL2wPJ-8" edge="1">
          <mxGeometry relative="1" as="geometry" />
        </mxCell>
        <mxCell id="Kh5swrbaKUCoFKUL2wPJ-6" value="ARS" style="rounded=1;whiteSpace=wrap;html=1;" parent="1" vertex="1">
          <mxGeometry x="520" y="350" width="120" height="60" as="geometry" />
        </mxCell>
        <mxCell id="AXQ52drEaIlNH6SVdhNf-13" style="edgeStyle=orthogonalEdgeStyle;rounded=0;orthogonalLoop=1;jettySize=auto;html=1;exitX=1;exitY=0.5;exitDx=0;exitDy=0;entryX=0;entryY=0.5;entryDx=0;entryDy=0;" parent="1" source="Kh5swrbaKUCoFKUL2wPJ-7" target="Kh5swrbaKUCoFKUL2wPJ-8" edge="1">
          <mxGeometry relative="1" as="geometry">
            <mxPoint x="700" y="380" as="targetPoint" />
          </mxGeometry>
        </mxCell>
        <mxCell id="Kh5swrbaKUCoFKUL2wPJ-7" value="IMS" style="rounded=1;whiteSpace=wrap;html=1;" parent="1" vertex="1">
          <mxGeometry x="520" y="440" width="120" height="60" as="geometry" />
        </mxCell>
        <mxCell id="AXQ52drEaIlNH6SVdhNf-14" style="edgeStyle=orthogonalEdgeStyle;rounded=0;orthogonalLoop=1;jettySize=auto;html=1;exitX=0.5;exitY=1;exitDx=0;exitDy=0;entryX=0.4;entryY=0.1;entryDx=0;entryDy=0;entryPerimeter=0;" parent="1" source="Kh5swrbaKUCoFKUL2wPJ-8" target="AXQ52drEaIlNH6SVdhNf-2" edge="1">
          <mxGeometry relative="1" as="geometry" />
        </mxCell>
        <mxCell id="AXQ52drEaIlNH6SVdhNf-15" style="edgeStyle=orthogonalEdgeStyle;rounded=0;orthogonalLoop=1;jettySize=auto;html=1;exitX=1;exitY=0.5;exitDx=0;exitDy=0;entryX=0;entryY=0.5;entryDx=0;entryDy=0;" parent="1" source="Kh5swrbaKUCoFKUL2wPJ-8" target="AXQ52drEaIlNH6SVdhNf-3" edge="1">
          <mxGeometry relative="1" as="geometry" />
        </mxCell>
        <mxCell id="AXQ52drEaIlNH6SVdhNf-16" style="edgeStyle=orthogonalEdgeStyle;rounded=0;orthogonalLoop=1;jettySize=auto;html=1;exitX=1;exitY=0.5;exitDx=0;exitDy=0;entryX=0;entryY=0.5;entryDx=0;entryDy=0;" parent="1" source="Kh5swrbaKUCoFKUL2wPJ-8" target="AXQ52drEaIlNH6SVdhNf-4" edge="1">
          <mxGeometry relative="1" as="geometry" />
        </mxCell>
        <mxCell id="AXQ52drEaIlNH6SVdhNf-17" style="edgeStyle=orthogonalEdgeStyle;rounded=0;orthogonalLoop=1;jettySize=auto;html=1;exitX=1;exitY=0.5;exitDx=0;exitDy=0;entryX=0;entryY=0.5;entryDx=0;entryDy=0;" parent="1" source="Kh5swrbaKUCoFKUL2wPJ-8" target="AXQ52drEaIlNH6SVdhNf-5" edge="1">
          <mxGeometry relative="1" as="geometry" />
        </mxCell>
        <mxCell id="Kh5swrbaKUCoFKUL2wPJ-8" value="KNOX" style="rounded=1;whiteSpace=wrap;html=1;" parent="1" vertex="1">
          <mxGeometry x="740" y="350" width="120" height="60" as="geometry" />
        </mxCell>
        <mxCell id="AXQ52drEaIlNH6SVdhNf-2" value="KNOX Portal" style="ellipse;shape=cloud;whiteSpace=wrap;html=1;" parent="1" vertex="1">
          <mxGeometry x="752" y="560" width="120" height="80" as="geometry" />
        </mxCell>
        <mxCell id="AXQ52drEaIlNH6SVdhNf-3" value="Service Registry" style="rounded=1;whiteSpace=wrap;html=1;" parent="1" vertex="1">
          <mxGeometry x="971" y="241" width="120" height="60" as="geometry" />
        </mxCell>
        <mxCell id="AXQ52drEaIlNH6SVdhNf-4" value="Hystrix Dashboard" style="rounded=1;whiteSpace=wrap;html=1;" parent="1" vertex="1">
          <mxGeometry x="971" y="350" width="120" height="60" as="geometry" />
        </mxCell>
        <mxCell id="AXQ52drEaIlNH6SVdhNf-5" value="Zipkin" style="rounded=1;whiteSpace=wrap;html=1;" parent="1" vertex="1">
          <mxGeometry x="971" y="462" width="120" height="60" as="geometry" />
        </mxCell>
      </root>
    </mxGraphModel>
  </diagram>
  <diagram id="SdWO-6w9Ra4b0Ztgk-4A" name="Sample Architectures">
    <mxGraphModel dx="1434" dy="796" grid="1" gridSize="10" guides="1" tooltips="1" connect="1" arrows="1" fold="1" page="1" pageScale="1" pageWidth="850" pageHeight="1100" math="0" shadow="0">
      <root>
        <mxCell id="0" />
        <mxCell id="1" parent="0" />
        <mxCell id="lJ8-393nFtKJUFmyQ9lN-13" style="edgeStyle=orthogonalEdgeStyle;rounded=0;orthogonalLoop=1;jettySize=auto;html=1;exitX=0.5;exitY=0.5;exitDx=0;exitDy=0;exitPerimeter=0;entryX=0;entryY=0.5;entryDx=0;entryDy=0;" parent="1" source="lJ8-393nFtKJUFmyQ9lN-1" target="lJ8-393nFtKJUFmyQ9lN-2" edge="1">
          <mxGeometry relative="1" as="geometry" />
        </mxCell>
        <mxCell id="lJ8-393nFtKJUFmyQ9lN-1" value="Actor" style="shape=umlActor;verticalLabelPosition=bottom;verticalAlign=top;html=1;outlineConnect=0;" parent="1" vertex="1">
          <mxGeometry x="60" y="201" width="30" height="59" as="geometry" />
        </mxCell>
        <mxCell id="lJ8-393nFtKJUFmyQ9lN-12" style="edgeStyle=orthogonalEdgeStyle;rounded=0;orthogonalLoop=1;jettySize=auto;html=1;exitX=1;exitY=0.5;exitDx=0;exitDy=0;entryX=0;entryY=0.5;entryDx=0;entryDy=0;" parent="1" source="lJ8-393nFtKJUFmyQ9lN-2" target="lJ8-393nFtKJUFmyQ9lN-3" edge="1">
          <mxGeometry relative="1" as="geometry" />
        </mxCell>
        <mxCell id="lJ8-393nFtKJUFmyQ9lN-2" value="React (UI)" style="rounded=1;whiteSpace=wrap;html=1;" parent="1" vertex="1">
          <mxGeometry x="200" y="201" width="120" height="60" as="geometry" />
        </mxCell>
        <mxCell id="lJ8-393nFtKJUFmyQ9lN-3" value="Backend Service" style="rounded=1;whiteSpace=wrap;html=1;" parent="1" vertex="1">
          <mxGeometry x="440" y="201" width="120" height="60" as="geometry" />
        </mxCell>
        <mxCell id="lJ8-393nFtKJUFmyQ9lN-5" value="Service Registry" style="rounded=1;whiteSpace=wrap;html=1;" parent="1" vertex="1">
          <mxGeometry x="695" y="12" width="120" height="60" as="geometry" />
        </mxCell>
        <mxCell id="lJ8-393nFtKJUFmyQ9lN-6" value="Hystrix" style="rounded=1;whiteSpace=wrap;html=1;" parent="1" vertex="1">
          <mxGeometry x="695" y="92" width="120" height="60" as="geometry" />
        </mxCell>
        <mxCell id="lJ8-393nFtKJUFmyQ9lN-7" value="Zipkin" style="rounded=1;whiteSpace=wrap;html=1;" parent="1" vertex="1">
          <mxGeometry x="695" y="172" width="120" height="60" as="geometry" />
        </mxCell>
        <mxCell id="lJ8-393nFtKJUFmyQ9lN-8" value="TIM" style="text;strokeColor=none;fillColor=none;html=1;fontSize=24;fontStyle=1;verticalAlign=middle;align=center;" parent="1" vertex="1">
          <mxGeometry x="310" y="120" width="100" height="40" as="geometry" />
        </mxCell>
        <mxCell id="lJ8-393nFtKJUFmyQ9lN-15" value="" style="endArrow=classic;html=1;rounded=0;entryX=0;entryY=0.5;entryDx=0;entryDy=0;exitX=1;exitY=0.5;exitDx=0;exitDy=0;" parent="1" source="lJ8-393nFtKJUFmyQ9lN-3" target="lJ8-393nFtKJUFmyQ9lN-5" edge="1">
          <mxGeometry width="50" height="50" relative="1" as="geometry">
            <mxPoint x="400" y="430" as="sourcePoint" />
            <mxPoint x="450" y="380" as="targetPoint" />
          </mxGeometry>
        </mxCell>
        <mxCell id="lJ8-393nFtKJUFmyQ9lN-16" value="" style="endArrow=classic;html=1;rounded=0;entryX=0;entryY=0.5;entryDx=0;entryDy=0;exitX=1;exitY=0.5;exitDx=0;exitDy=0;" parent="1" source="lJ8-393nFtKJUFmyQ9lN-3" target="lJ8-393nFtKJUFmyQ9lN-6" edge="1">
          <mxGeometry width="50" height="50" relative="1" as="geometry">
            <mxPoint x="400" y="430" as="sourcePoint" />
            <mxPoint x="450" y="380" as="targetPoint" />
          </mxGeometry>
        </mxCell>
        <mxCell id="lJ8-393nFtKJUFmyQ9lN-18" value="" style="endArrow=classic;html=1;rounded=0;entryX=0;entryY=0.5;entryDx=0;entryDy=0;exitX=1;exitY=0.5;exitDx=0;exitDy=0;" parent="1" source="lJ8-393nFtKJUFmyQ9lN-3" target="lJ8-393nFtKJUFmyQ9lN-7" edge="1">
          <mxGeometry width="50" height="50" relative="1" as="geometry">
            <mxPoint x="400" y="430" as="sourcePoint" />
            <mxPoint x="450" y="380" as="targetPoint" />
          </mxGeometry>
        </mxCell>
        <mxCell id="lJ8-393nFtKJUFmyQ9lN-19" style="edgeStyle=orthogonalEdgeStyle;rounded=0;orthogonalLoop=1;jettySize=auto;html=1;exitX=0.5;exitY=0.5;exitDx=0;exitDy=0;exitPerimeter=0;entryX=0;entryY=0.5;entryDx=0;entryDy=0;" parent="1" source="lJ8-393nFtKJUFmyQ9lN-20" target="lJ8-393nFtKJUFmyQ9lN-22" edge="1">
          <mxGeometry relative="1" as="geometry" />
        </mxCell>
        <mxCell id="lJ8-393nFtKJUFmyQ9lN-20" value="Actor" style="shape=umlActor;verticalLabelPosition=bottom;verticalAlign=top;html=1;outlineConnect=0;" parent="1" vertex="1">
          <mxGeometry x="70" y="510" width="30" height="59" as="geometry" />
        </mxCell>
        <mxCell id="lJ8-393nFtKJUFmyQ9lN-21" style="edgeStyle=orthogonalEdgeStyle;rounded=0;orthogonalLoop=1;jettySize=auto;html=1;exitX=1;exitY=0.5;exitDx=0;exitDy=0;entryX=0;entryY=0.5;entryDx=0;entryDy=0;" parent="1" source="lJ8-393nFtKJUFmyQ9lN-22" target="lJ8-393nFtKJUFmyQ9lN-23" edge="1">
          <mxGeometry relative="1" as="geometry" />
        </mxCell>
        <mxCell id="lJ8-393nFtKJUFmyQ9lN-22" value="React (UI)" style="rounded=1;whiteSpace=wrap;html=1;" parent="1" vertex="1">
          <mxGeometry x="210" y="510" width="120" height="60" as="geometry" />
        </mxCell>
        <mxCell id="lJ8-393nFtKJUFmyQ9lN-23" value="Backend Service" style="rounded=1;whiteSpace=wrap;html=1;" parent="1" vertex="1">
          <mxGeometry x="450" y="510" width="120" height="60" as="geometry" />
        </mxCell>
        <mxCell id="lJ8-393nFtKJUFmyQ9lN-27" value="CE Roadmap" style="text;strokeColor=none;fillColor=none;html=1;fontSize=24;fontStyle=1;verticalAlign=middle;align=center;" parent="1" vertex="1">
          <mxGeometry x="320" y="429" width="100" height="40" as="geometry" />
        </mxCell>
        <mxCell id="lJ8-393nFtKJUFmyQ9lN-28" value="" style="endArrow=classic;html=1;rounded=0;entryX=0;entryY=0.5;entryDx=0;entryDy=0;exitX=1;exitY=0.5;exitDx=0;exitDy=0;" parent="1" source="lJ8-393nFtKJUFmyQ9lN-23" target="lJ8-393nFtKJUFmyQ9lN-5" edge="1">
          <mxGeometry width="50" height="50" relative="1" as="geometry">
            <mxPoint x="410" y="739" as="sourcePoint" />
            <mxPoint x="705" y="351" as="targetPoint" />
          </mxGeometry>
        </mxCell>
        <mxCell id="lJ8-393nFtKJUFmyQ9lN-29" value="" style="endArrow=classic;html=1;rounded=0;entryX=0;entryY=0.5;entryDx=0;entryDy=0;exitX=1;exitY=0.5;exitDx=0;exitDy=0;" parent="1" source="lJ8-393nFtKJUFmyQ9lN-23" target="lJ8-393nFtKJUFmyQ9lN-6" edge="1">
          <mxGeometry width="50" height="50" relative="1" as="geometry">
            <mxPoint x="410" y="739" as="sourcePoint" />
            <mxPoint x="705" y="431" as="targetPoint" />
          </mxGeometry>
        </mxCell>
        <mxCell id="lJ8-393nFtKJUFmyQ9lN-30" value="" style="endArrow=classic;html=1;rounded=0;entryX=0;entryY=0.5;entryDx=0;entryDy=0;exitX=1;exitY=0.5;exitDx=0;exitDy=0;" parent="1" source="lJ8-393nFtKJUFmyQ9lN-23" target="lJ8-393nFtKJUFmyQ9lN-7" edge="1">
          <mxGeometry width="50" height="50" relative="1" as="geometry">
            <mxPoint x="410" y="739" as="sourcePoint" />
            <mxPoint x="705" y="511" as="targetPoint" />
          </mxGeometry>
        </mxCell>
        <mxCell id="lJ8-393nFtKJUFmyQ9lN-31" value="KNOX Service" style="rounded=1;whiteSpace=wrap;html=1;" parent="1" vertex="1">
          <mxGeometry x="676" y="510" width="120" height="60" as="geometry" />
        </mxCell>
        <mxCell id="lJ8-393nFtKJUFmyQ9lN-32" value="" style="endArrow=classic;html=1;rounded=0;" parent="1" target="lJ8-393nFtKJUFmyQ9lN-31" edge="1">
          <mxGeometry width="50" height="50" relative="1" as="geometry">
            <mxPoint x="570" y="540" as="sourcePoint" />
            <mxPoint x="640" y="539" as="targetPoint" />
          </mxGeometry>
        </mxCell>
        <mxCell id="yewi_jQsjNE5_-LyGUZW-1" value="NAHQ Portal" style="text;strokeColor=none;fillColor=none;html=1;fontSize=24;fontStyle=1;verticalAlign=middle;align=center;" parent="1" vertex="1">
          <mxGeometry x="300" y="770" width="100" height="40" as="geometry" />
        </mxCell>
        <mxCell id="FY_Hs7bjd-272PmDJQMs-3" style="edgeStyle=orthogonalEdgeStyle;rounded=0;orthogonalLoop=1;jettySize=auto;html=1;exitX=0.5;exitY=0.5;exitDx=0;exitDy=0;exitPerimeter=0;entryX=0;entryY=0.5;entryDx=0;entryDy=0;" edge="1" parent="1" source="yewi_jQsjNE5_-LyGUZW-2" target="yewi_jQsjNE5_-LyGUZW-3">
          <mxGeometry relative="1" as="geometry" />
        </mxCell>
        <mxCell id="yewi_jQsjNE5_-LyGUZW-2" value="Actor" style="shape=umlActor;verticalLabelPosition=bottom;verticalAlign=top;html=1;outlineConnect=0;" parent="1" vertex="1">
          <mxGeometry x="70" y="890" width="30" height="60" as="geometry" />
        </mxCell>
        <mxCell id="FY_Hs7bjd-272PmDJQMs-4" style="edgeStyle=orthogonalEdgeStyle;rounded=0;orthogonalLoop=1;jettySize=auto;html=1;exitX=1;exitY=0.5;exitDx=0;exitDy=0;entryX=0.083;entryY=0.5;entryDx=0;entryDy=0;entryPerimeter=0;" edge="1" parent="1" source="yewi_jQsjNE5_-LyGUZW-3" target="yewi_jQsjNE5_-LyGUZW-4">
          <mxGeometry relative="1" as="geometry" />
        </mxCell>
        <mxCell id="FY_Hs7bjd-272PmDJQMs-5" style="edgeStyle=orthogonalEdgeStyle;rounded=0;orthogonalLoop=1;jettySize=auto;html=1;exitX=1;exitY=0.5;exitDx=0;exitDy=0;entryX=0;entryY=0.5;entryDx=0;entryDy=0;" edge="1" parent="1" source="yewi_jQsjNE5_-LyGUZW-3" target="yewi_jQsjNE5_-LyGUZW-5">
          <mxGeometry relative="1" as="geometry" />
        </mxCell>
        <mxCell id="yewi_jQsjNE5_-LyGUZW-3" value="React (UI)" style="rounded=1;whiteSpace=wrap;html=1;" parent="1" vertex="1">
          <mxGeometry x="200" y="890" width="120" height="60" as="geometry" />
        </mxCell>
        <mxCell id="FY_Hs7bjd-272PmDJQMs-6" style="edgeStyle=orthogonalEdgeStyle;rounded=0;orthogonalLoop=1;jettySize=auto;html=1;exitX=1;exitY=0.5;exitDx=0;exitDy=0;entryX=0;entryY=0.5;entryDx=0;entryDy=0;" edge="1" parent="1" source="yewi_jQsjNE5_-LyGUZW-4" target="yewi_jQsjNE5_-LyGUZW-6">
          <mxGeometry relative="1" as="geometry" />
        </mxCell>
        <mxCell id="yewi_jQsjNE5_-LyGUZW-4" value="Business Service 1" style="rounded=1;whiteSpace=wrap;html=1;" parent="1" vertex="1">
          <mxGeometry x="440" y="890" width="120" height="60" as="geometry" />
        </mxCell>
        <mxCell id="FY_Hs7bjd-272PmDJQMs-7" style="edgeStyle=orthogonalEdgeStyle;rounded=0;orthogonalLoop=1;jettySize=auto;html=1;exitX=1;exitY=0.5;exitDx=0;exitDy=0;entryX=0;entryY=0.5;entryDx=0;entryDy=0;" edge="1" parent="1" source="yewi_jQsjNE5_-LyGUZW-5" target="yewi_jQsjNE5_-LyGUZW-6">
          <mxGeometry relative="1" as="geometry" />
        </mxCell>
        <mxCell id="yewi_jQsjNE5_-LyGUZW-5" value="Business Service 2" style="rounded=1;whiteSpace=wrap;html=1;" parent="1" vertex="1">
          <mxGeometry x="440" y="990" width="120" height="60" as="geometry" />
        </mxCell>
        <mxCell id="yewi_jQsjNE5_-LyGUZW-6" value="Zesati Service" style="rounded=1;whiteSpace=wrap;html=1;" parent="1" vertex="1">
          <mxGeometry x="670" y="930" width="120" height="60" as="geometry" />
        </mxCell>
        <mxCell id="yewi_jQsjNE5_-LyGUZW-7" value="RMS" style="text;strokeColor=none;fillColor=none;html=1;fontSize=24;fontStyle=1;verticalAlign=middle;align=center;" parent="1" vertex="1">
          <mxGeometry x="302" y="1101" width="100" height="40" as="geometry" />
        </mxCell>
        <mxCell id="FY_Hs7bjd-272PmDJQMs-8" style="edgeStyle=orthogonalEdgeStyle;rounded=0;orthogonalLoop=1;jettySize=auto;html=1;exitX=0.5;exitY=0.5;exitDx=0;exitDy=0;exitPerimeter=0;entryX=0;entryY=0.5;entryDx=0;entryDy=0;" edge="1" parent="1" source="yewi_jQsjNE5_-LyGUZW-8" target="yewi_jQsjNE5_-LyGUZW-9">
          <mxGeometry relative="1" as="geometry" />
        </mxCell>
        <mxCell id="yewi_jQsjNE5_-LyGUZW-8" value="Actor" style="shape=umlActor;verticalLabelPosition=bottom;verticalAlign=top;html=1;outlineConnect=0;" parent="1" vertex="1">
          <mxGeometry x="72" y="1221" width="30" height="60" as="geometry" />
        </mxCell>
        <mxCell id="FY_Hs7bjd-272PmDJQMs-9" style="edgeStyle=orthogonalEdgeStyle;rounded=0;orthogonalLoop=1;jettySize=auto;html=1;exitX=1;exitY=0.5;exitDx=0;exitDy=0;entryX=0;entryY=0.5;entryDx=0;entryDy=0;" edge="1" parent="1" source="yewi_jQsjNE5_-LyGUZW-9" target="yewi_jQsjNE5_-LyGUZW-10">
          <mxGeometry relative="1" as="geometry" />
        </mxCell>
        <mxCell id="FY_Hs7bjd-272PmDJQMs-10" style="edgeStyle=orthogonalEdgeStyle;rounded=0;orthogonalLoop=1;jettySize=auto;html=1;exitX=1;exitY=0.5;exitDx=0;exitDy=0;entryX=-0.008;entryY=0.633;entryDx=0;entryDy=0;entryPerimeter=0;" edge="1" parent="1" source="yewi_jQsjNE5_-LyGUZW-9" target="yewi_jQsjNE5_-LyGUZW-11">
          <mxGeometry relative="1" as="geometry" />
        </mxCell>
        <mxCell id="yewi_jQsjNE5_-LyGUZW-9" value="React (UI)" style="rounded=1;whiteSpace=wrap;html=1;" parent="1" vertex="1">
          <mxGeometry x="202" y="1221" width="120" height="60" as="geometry" />
        </mxCell>
        <mxCell id="yewi_jQsjNE5_-LyGUZW-10" value="Business Service 1" style="rounded=1;whiteSpace=wrap;html=1;" parent="1" vertex="1">
          <mxGeometry x="442" y="1221" width="120" height="60" as="geometry" />
        </mxCell>
        <mxCell id="yewi_jQsjNE5_-LyGUZW-11" value="Business Service 2" style="rounded=1;whiteSpace=wrap;html=1;" parent="1" vertex="1">
          <mxGeometry x="442" y="1321" width="120" height="60" as="geometry" />
        </mxCell>
        <mxCell id="yewi_jQsjNE5_-LyGUZW-12" value="Knox Service" style="rounded=1;whiteSpace=wrap;html=1;" parent="1" vertex="1">
          <mxGeometry x="830" y="1170" width="120" height="60" as="geometry" />
        </mxCell>
        <mxCell id="yewi_jQsjNE5_-LyGUZW-13" value="Zesati Service" style="rounded=1;whiteSpace=wrap;html=1;" parent="1" vertex="1">
          <mxGeometry x="830" y="1360" width="120" height="60" as="geometry" />
        </mxCell>
        <mxCell id="FY_Hs7bjd-272PmDJQMs-14" value="" style="endArrow=classic;html=1;rounded=0;exitX=1;exitY=0.5;exitDx=0;exitDy=0;entryX=0;entryY=0.5;entryDx=0;entryDy=0;" edge="1" parent="1" source="yewi_jQsjNE5_-LyGUZW-10" target="yewi_jQsjNE5_-LyGUZW-12">
          <mxGeometry width="50" height="50" relative="1" as="geometry">
            <mxPoint x="710" y="1090" as="sourcePoint" />
            <mxPoint x="760" y="1040" as="targetPoint" />
          </mxGeometry>
        </mxCell>
        <mxCell id="FY_Hs7bjd-272PmDJQMs-15" value="" style="endArrow=classic;html=1;rounded=0;exitX=1;exitY=0.5;exitDx=0;exitDy=0;" edge="1" parent="1" source="yewi_jQsjNE5_-LyGUZW-11">
          <mxGeometry width="50" height="50" relative="1" as="geometry">
            <mxPoint x="572" y="1261" as="sourcePoint" />
            <mxPoint x="830" y="1200" as="targetPoint" />
          </mxGeometry>
        </mxCell>
        <mxCell id="FY_Hs7bjd-272PmDJQMs-16" value="" style="endArrow=classic;html=1;rounded=0;exitX=1;exitY=0.5;exitDx=0;exitDy=0;entryX=0;entryY=0.5;entryDx=0;entryDy=0;" edge="1" parent="1" source="yewi_jQsjNE5_-LyGUZW-10" target="yewi_jQsjNE5_-LyGUZW-13">
          <mxGeometry width="50" height="50" relative="1" as="geometry">
            <mxPoint x="710" y="1090" as="sourcePoint" />
            <mxPoint x="760" y="1040" as="targetPoint" />
          </mxGeometry>
        </mxCell>
        <mxCell id="FY_Hs7bjd-272PmDJQMs-17" value="" style="endArrow=classic;html=1;rounded=0;exitX=1;exitY=0.5;exitDx=0;exitDy=0;entryX=0;entryY=0.5;entryDx=0;entryDy=0;" edge="1" parent="1" source="yewi_jQsjNE5_-LyGUZW-11" target="yewi_jQsjNE5_-LyGUZW-13">
          <mxGeometry width="50" height="50" relative="1" as="geometry">
            <mxPoint x="710" y="1090" as="sourcePoint" />
            <mxPoint x="760" y="1040" as="targetPoint" />
          </mxGeometry>
        </mxCell>
      </root>
    </mxGraphModel>
  </diagram>
  <diagram id="BQ3VhS7G33fP0fAjmYMV" name="CICD">
    <mxGraphModel dx="1434" dy="796" grid="1" gridSize="10" guides="1" tooltips="1" connect="1" arrows="1" fold="1" page="1" pageScale="1" pageWidth="850" pageHeight="1100" math="0" shadow="0">
      <root>
        <mxCell id="0" />
        <mxCell id="1" parent="0" />
        <mxCell id="YBHo7S_fpZeXmWpnwgHI-1" value="Git/SVN" style="rounded=1;whiteSpace=wrap;html=1;" parent="1" vertex="1">
          <mxGeometry x="360" y="40" width="120" height="60" as="geometry" />
        </mxCell>
        <mxCell id="YBHo7S_fpZeXmWpnwgHI-2" value="mvn clean package" style="rounded=1;whiteSpace=wrap;html=1;" parent="1" vertex="1">
          <mxGeometry x="360" y="160" width="120" height="60" as="geometry" />
        </mxCell>
        <mxCell id="YBHo7S_fpZeXmWpnwgHI-3" value="image" style="rounded=1;whiteSpace=wrap;html=1;" parent="1" vertex="1">
          <mxGeometry x="360" y="280" width="120" height="60" as="geometry" />
        </mxCell>
        <mxCell id="YBHo7S_fpZeXmWpnwgHI-4" value="registry (push)" style="rounded=1;whiteSpace=wrap;html=1;" parent="1" vertex="1">
          <mxGeometry x="360" y="400" width="120" height="60" as="geometry" />
        </mxCell>
        <mxCell id="YBHo7S_fpZeXmWpnwgHI-5" value="pull latest image" style="rounded=1;whiteSpace=wrap;html=1;" parent="1" vertex="1">
          <mxGeometry x="360" y="520" width="120" height="60" as="geometry" />
        </mxCell>
        <mxCell id="YBHo7S_fpZeXmWpnwgHI-6" value="deploy" style="rounded=1;whiteSpace=wrap;html=1;" parent="1" vertex="1">
          <mxGeometry x="360" y="640" width="120" height="60" as="geometry" />
        </mxCell>
      </root>
    </mxGraphModel>
  </diagram>
</mxfile>
